<svg xmlns="http://www.w3.org/2000/svg" viewBox="0 0 161.9 196.3"><path d="M37.3 73.4c-6.4 0-11.6-5.2-11.6-11.6V27.1h4.6v34.7c0 3.8 3.1 6.9 6.9 6.9 3.8 0 6.9-3.1 6.9-6.9V27.1h4.6v34.7c.2 6.4-5 11.6-11.4 11.6m37.4 0H53.5v-4.6h21.1c4.9 0 9-4 9-9 0-3.5-2-6.7-5.2-8.1l-20.2-9.3c-2.8-1.3-4.6-4.1-4.6-7.2 0-4.4 3.6-8 8-8H86v4.6H61.5c-1.8 0-3.3 1.5-3.3 3.3 0 1.3.8 2.5 1.9 3l20.2 9.3c4.8 2.2 7.9 7.1 7.9 12.4.1 7.5-6 13.6-13.5 13.6m64.5 0h-4.6V33l-13.7 6.3c-3.1 1.4-6.6 1.4-9.7 0L97.5 33v40.3h-4.6v-44c0-.8.4-1.5 1.1-1.9.7-.4 1.5-.5 2.2-.2l16.9 7.8c1.8.9 4 .9 5.8 0l16.9-7.8c.7-.3 1.6-.3 2.2.2.7.4 1.1 1.2 1.1 1.9v44.1zM25.8 169.9h113.4v4.6H25.8z" fill="#b01630"/><path d="M80.3 150.7c0 5.8-.8 6.4-4.4 6.4-3.6 0-4.4-.6-4.4-6.4V143h-1.4v7.7c0 5.8.8 7.8 5.8 7.8s5.8-1.9 5.8-7.8V143h-1.4v7.7zM61 142.9h-.7c-3.3 0-6.4.9-6.4 7.8 0 6.8 3.1 7.8 6.4 7.8 3.3 0 6.4-.9 6.4-7.8 0-6.4-2.7-7.6-5.7-7.8m-.7 14.2c-2.1 0-5 0-5-6.4s2.9-6.4 5-6.4 5 0 5 6.4-2.9 6.4-5 6.4M91.4 143h-5.7v15.4h1.4v-5.8h4.3c2.4 0 4.8-.6 4.8-4.8s-2.4-4.8-4.8-4.8m0 8.2h-4.3v-6.8h4.3c2.3 0 3.4.5 3.4 3.4s-1.1 3.4-3.4 3.4m-60.2.2h4v5.3c-.7.1-2 .4-3.1.4-2.1 0-5 0-5-6.4s2.9-6.4 5-6.4c.7 0 2 .1 3 .4l.7.2.4-1.3-.7-.2c-1.2-.3-2.5-.4-3.3-.4-3.3 0-6.4.9-6.4 7.8 0 6.8 3.1 7.8 6.4 7.8 1.8 0 3.8-.5 3.9-.5l.5-.1v-7.7h-5.4v1.1zm19.7-4c0-2.9-1.5-4.4-4.4-4.4h-6.1v15.4h1.4v-6.6h3.5l4.1 6.6H51l-4.1-6.6c2.6-.2 4-1.7 4-4.4m-9.1-3h4.7c1.8 0 3 .5 3 3s-1.2 3-3 3h-4.7v-6zm42.3-44.3c5 0 5.8-1.9 5.8-7.8v-7.7h-1.4v7.7c0 5.8-.8 6.4-4.4 6.4-3.6 0-4.4-.6-4.4-6.4v-7.7h-1.4v7.7c0 5.9.8 7.8 5.8 7.8m-52.5 0c5 0 5.8-1.9 5.8-7.8v-7.7H36v7.7c0 5.8-.8 6.4-4.4 6.4-3.6 0-4.4-.6-4.4-6.4v-7.7h-1.4v7.7c0 5.9.8 7.8 5.8 7.8m25-15.4H58v15.4h-1.4zm-13.8 2.4l8 13h1.5V84.7h-1.4v12.9l-8-12.9h-1.5v15.4h1.4zm61 11.6h-8.6v-6.1h6.2v-1.4h-6.2v-5.1h8.6v-1.4h-10v15.4h10zm-29.1-6.3c0-6.8-3.1-7.8-6.4-7.8s-6.4.9-6.4 7.8c0 6.8 3.1 7.8 6.4 7.8.6 0 1.3 0 1.9-.1l1 1.6h1.6l-1.3-2c1.9-.9 3.2-2.9 3.2-7.3m-3.8 6l-.6-.9-.4-.7h-1.6l.4.7.8 1.3h-1.1c-2.1 0-5 0-5-6.4s2.9-6.4 5-6.4 5 0 5 6.4c-.1 3.9-1.2 5.4-2.5 6m-11.6 21.2c3.3 0 6.4-.9 6.4-7.8s-3.1-7.8-6.4-7.8c-3.3 0-6.4.9-6.4 7.8s3.1 7.8 6.4 7.8m0-14.2c2.1 0 5 0 5 6.4s-2.9 6.4-5 6.4-5 0-5-6.4 2.9-6.4 5-6.4m-22.6 10c0-1.5-.8-2.9-2.1-3.6l-6.8-3.8c-.4-.2-.7-.7-.7-1.2 0-.7.6-1.4 1.4-1.4h7.6V104h-7.6c-1.5 0-2.7 1.2-2.7 2.7 0 1 .5 1.9 1.4 2.4L34 113c.9.5 1.4 1.4 1.4 2.4 0 1.5-1.2 2.7-2.7 2.7h-6.9v1.4h6.9c2.2 0 4-1.8 4-4.1m32.7-11.3v15.4h1.4v-6.6h3.5l4.1 6.6H80l-4.1-6.6c2.6-.1 4-1.6 4-4.3 0-2.9-1.5-4.4-4.4-4.4h-6.1zm9 4.4c0 2.5-1.2 3-3 3h-4.7v-6h4.7c1.8 0 3 .5 3 3m-37 5.2h4.3c2.4 0 4.8-.6 4.8-4.8s-2.4-4.8-4.8-4.8H40v15.4h1.4v-5.8zm0-8.2h4.3c2.3 0 3.4.5 3.4 3.4s-1.1 3.4-3.4 3.4h-4.3v-6.8zm46.5 14v-14h5.2v-1.4H81.2v1.4h5.3v14zm20.3 4.1h1.4V139h-1.4zm15.2 12.9l-8-12.9h-1.5v15.3h1.4V126l7.9 12.9h1.5v-15.3h-1.3zm10.4-5.9v1.4h4v5.3c-.7.1-2 .4-3.1.4-2.1 0-5 0-5-6.4s2.9-6.4 5-6.4c.7 0 2 .1 3 .4l.7.2.4-1.3-.7-.2c-1.2-.3-2.5-.4-3.3-.4-3.3 0-6.4.9-6.4 7.8 0 6.8 3.1 7.8 6.4 7.8 1.8 0 3.8-.5 3.9-.5l.5-.1v-7.7h-5.4zm-40.3 6.9H85v-6.1h6.2V130H85v-5h8.5v-1.4h-9.9v15.3h9.9zm.8-12.5h5v13.9h1.4V125h5v-1.4H94.3zm-14.6-1.4l-7.9 7.9v-7.9h-1.4v15.1h1.4v-5.3l2.7-2.7 4.9 8H81l-5.5-9 6.1-6.1zM53 138.9h1.5l-.2-.5-2.1-5.7-3.3-9.1h-2.4L41 138.5l-.2.5h1.5l.2-.5L44 134h7.2l1.6 4.4.2.5zm-8.5-6.2l2.8-7.7h.5l2.8 7.7h-6.1zm22.6-4.8c0-2.9-1.5-4.4-4.4-4.4h-6.1v15.4H58v-6.6h3.5l4.1 6.6h1.6l-4.1-6.6c2.7-.1 4-1.6 4-4.4m-9-2.9h4.7c1.8 0 3 .5 3 3s-1.2 3-3 3h-4.7v-6zm-25.9 5.1l-5-6.5h-1.4v15.3h1.4v-13.2l4.6 6.1h.8l4.6-6.1v13.2h1.4v-15.3h-1.5z" fill="#fff"/></svg>